<svg viewBox="0 0 105.65 105.65" xmlns="http://www.w3.org/2000/svg"><circle cx="52.825" cy="52.825" fill="#1e2127" r="52.825" stroke-width="2.113"/><path d="m13.95 46.575v.225c-.075.15-.075.3-.075.45 0 .225.075.375.075.525v.525s0 .3.075.525c0 .15 0 .3.075.525 0 .15 0 .3.075.375 0 .225.075.375.075.525s.075.3.15.45c.075.3.15.6.225.975l.225.45c0 .15.075.225.15.375.075.3.225.6.375.9.075.15.15.3.3.525.075.15.15.3.225.375.15.3.375.6.525.9l.3.3c.075.15.15.3.225.375.225.225.45.525.675.75l.675.675c.3.3.525.45.825.675.225.225.45.45.75.6.525.375 1.05.75 1.65.975.15.075.3.15.375.225.225.075.375.15.6.225.15.075.225.075.375.15s.3.15.45.15c.375.15.675.225.975.3s.675.15.975.225.675.075.975.15c.3 0 .6.075.9.075h1.05c.3 0 .675 0 1.05-.075.6-.075 1.275-.15 1.875-.3s1.2-.375 1.8-.6c.15-.075.3-.075.45-.15s.3-.15.525-.225h4.95c-.075 0-.15.075-.15.15-.075 0-.15.075-.225.15-.45.375-.975.75-1.5 1.125-.225.15-.525.3-.825.45-.3.225-.6.375-.9.525-.075.075-.225.075-.375.15l-.45.225c-.3.15-.6.225-.9.375-.3.075-.6.225-.9.3-.225.075-.375.075-.525.15-.15 0-.3.075-.45.075-.15.075-.3.075-.525.15h-.15c-.15.075-.225.075-.375.075-.3.075-.6.075-.975.15-.6.075-1.275.075-1.95.075h-.45-.45c-.3 0-.675-.075-.975-.075-.375-.075-.675-.15-1.05-.15l-.9-.225c-.375-.075-.675-.225-1.05-.3-.225-.075-.525-.225-.825-.3-.6-.225-1.2-.525-1.8-.75-.3-.15-.6-.3-.825-.525-.3-.15-.6-.3-.825-.525-.15-.075-.3-.15-.375-.225-.15-.075-.3-.225-.375-.3-.15-.075-.225-.15-.375-.225l-.375-.375c-.525-.375-.975-.825-1.425-1.35-.075-.075-.225-.225-.3-.375-.15-.075-.225-.225-.375-.375-.225-.225-.375-.525-.6-.75-.075-.15-.225-.3-.3-.45s-.15-.225-.225-.375c-.075-.075-.15-.225-.225-.375-.15-.15-.225-.3-.3-.45-.15-.3-.3-.525-.45-.825s-.3-.6-.375-.9c-.15-.375-.3-.675-.375-.975-.075-.15-.15-.3-.15-.45-.075-.15-.075-.3-.15-.45-.075-.3-.15-.6-.225-.975l-.225-.9c0-.15 0-.3-.075-.45v-.3s-.075-.15-.075-.225v-.45-.525c-.075-.675-.075-1.35 0-2.025s.15-1.275.225-1.95l.225-.9s.225-.675.3-.975c0-.15.075-.225.15-.375.075-.225.075-.375.15-.525.15-.3.225-.6.375-.825l.45-.9c.075-.15.15-.375.225-.525s.15-.3.3-.375l.225-.45s.15-.225.225-.375.225-.3.3-.45c.15-.075.225-.225.3-.375.375-.525.825-.975 1.275-1.425.225-.225.45-.525.75-.675.225-.225.45-.45.75-.675.075-.075.225-.15.375-.3.075-.075.225-.15.3-.225.15-.075.3-.225.45-.3.075-.075.225-.15.375-.225.525-.375 1.125-.675 1.725-.975l.45-.225c.075 0 .225-.075.375-.15.3-.15.675-.225.975-.375.3-.075.6-.225.975-.3.15 0 .3-.075.45-.075.15-.075.3-.075.45-.15.3-.075.6-.15.975-.15.15 0 .3-.075.45-.075.225 0 .375-.075.525-.075.675-.075 1.275-.075 1.95-.075.375 0 .675.075 1.05.075.3 0 .675.075.975.15.3 0 .6.075.9.15.225 0 .375.075.525.075.15.075.3.075.45.075.6.225 1.2.375 1.8.6.15.075.375.15.525.225l.45.225s.3.15.375.225l1.35.675c.225.15.525.375.75.525.15.075.3.225.375.3.075 0 .15.075.225.15.075 0 .15.075.15.15.15.075.3.15.375.225.15.15.3.225.375.375h-4.875c-.075 0-.075 0-.15-.075-.3-.075-.6-.225-.9-.375-.15-.075-.3-.15-.525-.15-.15-.075-.3-.15-.45-.15-.3-.15-.6-.225-.9-.3s-.675-.075-.975-.15c-.675-.15-1.35-.15-2.025-.225-.6 0-1.275 0-1.875.15-.675.075-1.35.15-1.95.375-.375.075-.675.15-.975.3-.15 0-.3.075-.45.15-.15 0-.225.075-.375.15-.225.075-.375.15-.6.225-.075.075-.225.15-.375.225-.3.15-.6.3-.9.525-.225.15-.525.3-.75.45-.225.225-.525.375-.75.6-.15.075-.225.225-.375.3-.15.15-.3.225-.375.375-.3.225-.525.45-.75.75-.225.225-.375.45-.6.675-.075.15-.15.225-.3.375-.075.15-.15.225-.3.375l-.225.45c-.075.075-.15.225-.225.375s-.225.225-.3.375c-.075.225-.15.375-.225.6-.075.075-.15.225-.15.3-.075.15-.225.3-.225.525-.15.3-.3.6-.375.9s-.225.6-.3.975c0 .15-.075.225-.075.375-.075.15-.075.375-.075.525-.075.15-.075.3-.075.45-.075.225-.075.375-.075.525-.075.3-.075.675-.075.975zm28.8 13.125h9.9s-.075.15-.075.225c-.15.225-.3.525-.45.75-.15.3-.3.6-.45.825-.075.15-.225.3-.3.45-.075.075-.15.225-.225.375s-.15.225-.225.375c-.15.15-.225.225-.3.375s-.15.3-.3.375c0 .075-.075.15-.075.225-.075 0-.075.075-.075.075l-.075.075c0 .075-.075.075-.075.075 0 .075-.075.075-.075.15l-.15.15c-.075.15-.225.3-.3.45-.45.45-.825.975-1.275 1.425-.225.225-.45.45-.6.675-.3.225-.525.45-.825.75-.45.375-.9.825-1.425 1.2-.45.375-.975.825-1.5 1.125-.15.15-.375.3-.525.45-.075 0-.225.075-.3.15-.3.225-.6.375-.9.6-.6.3-1.2.675-1.8.975s-1.2.525-1.8.825c-.525.225-1.125.45-1.725.675-.6.15-1.275.375-1.875.525-.375.075-.675.15-1.05.3-.15 0-.3.075-.45.075-.225 0-.375.075-.6.075-.6.15-1.275.225-1.95.3-.6.075-1.275.15-1.875.15-.675.075-1.275.075-1.95.075-.3-.075-.675-.075-.975-.075-.375 0-.75-.075-1.125-.075-.15 0-.3-.075-.45-.075s-.375-.075-.525-.075c-.375 0-.675-.075-1.05-.15-.6-.075-1.275-.225-1.875-.375s-1.2-.375-1.8-.525c-.3-.15-.6-.225-.9-.3-.375-.15-.675-.3-.975-.375-.3-.15-.675-.3-.975-.45-.15-.075-.3-.075-.375-.15-.225-.15-.375-.225-.6-.3-.6-.3-1.125-.6-1.725-.9-.525-.375-1.05-.675-1.575-1.05l-1.575-1.125c-.225-.225-.525-.45-.825-.675-.225-.225-.45-.45-.75-.675-.225-.225-.525-.45-.75-.75-.225-.15-.375-.375-.6-.6-.45-.45-.9-.975-1.275-1.425-.225-.3-.45-.525-.6-.75-.225-.225-.375-.525-.6-.75-.15-.225-.3-.525-.525-.825-.075-.075-.15-.225-.225-.375s-.225-.3-.3-.45c-.15-.225-.3-.45-.45-.75-.075-.15-.15-.225-.225-.375s-.15-.3-.225-.375c-.3-.6-.6-1.2-.825-1.725l-.225-.45c0-.15-.15-.375-.15-.525l-.225-.45c0-.15-.075-.3-.15-.45-.225-.6-.375-1.2-.6-1.8l-.225-.9c-.075-.375-.15-.675-.225-.975s-.15-.675-.225-1.05c0-.3-.075-.6-.15-.9-.075-.675-.15-1.35-.15-2.025-.075-.6-.075-1.275-.075-1.875 0-.675 0-1.35.075-2.025 0-.3.075-.675.075-.975.075-.3.075-.675.15-.975s.075-.675.15-.975c0-.15.075-.225.075-.375 0-.225.075-.375.075-.525.075-.075.075-.15.075-.225s.075-.15.075-.3.075-.3.075-.375c.075-.375.225-.675.3-.975.15-.675.375-1.35.6-1.95s.45-1.2.75-1.725l.225-.45c0-.075.075-.15.075-.3.075 0 .075 0 .075-.075l.075-.075v-.15s.075 0 .075-.075.075-.15.15-.225c.075-.15.075-.3.15-.375.15-.3.3-.525.45-.825s.375-.525.525-.825c.075-.15.15-.225.225-.375.15-.15.225-.3.3-.45s.225-.225.3-.375.15-.225.225-.375c.225-.225.375-.525.6-.75.15-.225.375-.45.6-.75.15-.225.375-.45.6-.675.225-.3.45-.525.675-.75l.3-.3c.075-.15.225-.225.3-.3.225-.225.45-.45.75-.675l1.575-1.35c.225-.225.525-.375.825-.6.225-.225.525-.375.825-.6.525-.375 1.125-.675 1.65-.975.525-.375 1.125-.6 1.65-.9.3-.15.6-.3.9-.375.3-.15.6-.3.975-.45.3-.15.6-.225.975-.375.3-.075.6-.225.975-.3.6-.225 1.275-.375 1.95-.525.6-.15 1.2-.3 1.8-.375.675-.15 1.275-.225 1.95-.3.3 0 .675-.075 1.05-.075h.975 1.05 1.05c.3.075.6.075.975.075.3.075.6.075.9.15.6.075 1.275.15 1.875.3.675.075 1.35.225 2.025.45.15 0 .3.075.45.075.15.075.3.15.45.15.375.15.75.225 1.05.375.075 0 .225.075.3.075l.675.225c.3.15.525.3.825.375.6.3 1.125.525 1.725.825.525.3 1.125.6 1.725.975.3.15.6.375.9.6.225.15.525.375.825.525.075.075.225.15.3.225.225.15.375.3.525.45.3.15.525.375.75.6.525.375.975.825 1.425 1.2.15.15.3.3.375.45.15.075.225.15.3.3.225.15.45.375.675.6.225.3.45.525.6.75.225.3.45.525.675.825.15.225.375.45.525.675.225.3.375.525.6.75.3.6.675 1.125.975 1.65.15.3.375.525.45.825.075.15.15.225.225.375.075.075.075.15.15.225 0 .075.075.15.075.225h-9.9l-.3-.3c-.075-.15-.15-.225-.3-.375-.15-.225-.375-.45-.6-.675-.45-.375-.975-.825-1.425-1.275-.15-.075-.225-.15-.375-.3-.15-.075-.225-.15-.375-.225-.3-.225-.525-.375-.825-.6-.15-.075-.225-.15-.375-.225s-.225-.15-.375-.225c-.3-.15-.6-.375-.9-.525-.6-.3-1.125-.6-1.725-.825-.3-.075-.6-.225-.9-.3-.375-.15-.675-.225-.975-.3-.3-.15-.6-.225-.975-.3-.3-.075-.675-.15-.975-.225l-2.025-.225s-1.35-.075-1.95-.075c-.375 0-.675.075-.975.075s-.6.075-.975.075c-.6.075-1.275.15-1.875.3s-1.275.3-1.875.525-1.275.45-1.875.75l-1.8.9c-.075.075-.15.075-.225.15 0 0-.075.075-.15.075-.075.075-.225.15-.375.3-.15.075-.3.15-.375.225-.15.075-.3.15-.375.3-.525.375-1.05.75-1.575 1.2-.45.375-.9.825-1.275 1.275-.45.45-.9.975-1.275 1.5-.375.45-.75.975-1.05 1.5-.375.6-.75 1.2-.975 1.8l-.45.9c-.075.15-.15.3-.15.45l-.225.45c-.15.6-.375 1.125-.525 1.8-.15.6-.3 1.275-.45 1.95-.075.6-.15 1.275-.15 1.95-.075.375-.075.675-.075.975s0 .6.075.975c0 .6.075 1.275.15 1.95s.225 1.275.375 1.95.375 1.275.6 1.875c.075.15.15.3.15.45l.225.45c.075.3.225.6.375.9l.225.45s.15.225.225.375c.15.3.3.6.45.825.375.6.75 1.125 1.125 1.65s.825.975 1.275 1.425c.15.225.375.45.6.675l.3.3c.15.15.3.225.375.375.225.225.525.375.75.6s.525.375.75.6c.525.3.975.675 1.5.975.6.3 1.2.675 1.8.9.6.3 1.2.525 1.875.75.6.225 1.2.375 1.875.525.3.15.675.15 1.05.225.3.075.6.15.9.15.375.075.675.075.975.15h.45.45 2.025c.3-.075.675-.075.975-.15.3 0 .6-.075.975-.075.6-.15 1.275-.3 1.875-.45.375-.15.675-.225.975-.3.15-.075.375-.15.525-.225.15 0 .3-.075.45-.15.3-.15.6-.225.9-.375l.9-.45c.6-.3 1.125-.6 1.65-.975.3-.15.525-.375.825-.525.075-.075.225-.225.375-.3.075-.075.225-.225.375-.3.45-.375.975-.825 1.425-1.275s.825-.9 1.275-1.35z" fill="#fff" name="monogram" transform="translate(26.5 5.65)"/></svg>